<svg xmlns="http://www.w3.org/2000/svg" width="72" height="49">
  <g fill="none" fill-rule="evenodd">
    <path fill="#4A90E2" d="M0 0v23.5138871h35.1219501V11.7569435C35.1219501 5.26233525 29.8585445 0 23.3658047 0H0zm36.8780476 23.5138871h35.1219501V0H48.634193c-6.4980346 0-11.7561454 5.26376292-11.7561454 11.7569435v11.7569436z"/>
    <path fill="#4990E2" d="M.1612683 48.5999985h6.0807803V34.2624134h.06204877L17.4418531 48.5999985h6.0807803V25.2005631h-6.0807803v14.3065513h-.0620488L6.2420486 25.2005631H.1612683v23.3994354zm31.2556088-23.3994354h-6.608195l9.8347314 23.3994354h4.7157072l9.9898534-23.3994354h-6.608195l-5.6774632 14.2134501-5.6464388-14.2134501zm25.298926 0h-6.0807803v23.3994354h13.3715118v-5.1515999h-7.2907315V25.2005631zm15.1229263 0h-6.0807803v23.3994354h6.0807803V25.2005631z"/>
  </g>
</svg>
